<svg xmlns="http://www.w3.org/2000/svg" width="512" height="512" viewBox="0 0 512 512">
  <defs>
    <linearGradient id="bg" x1="0%" y1="0%" x2="100%" y2="100%">
      <stop offset="0%" stop-color="#1a1d27" />
      <stop offset="100%" stop-color="#0f1117" />
    </linearGradient>
    <linearGradient id="gold" x1="0%" y1="0%" x2="100%" y2="100%">
      <stop offset="0%" stop-color="#fbbf24" />
      <stop offset="50%" stop-color="#e8a849" />
      <stop offset="100%" stop-color="#d97706" />
    </linearGradient>
    <filter id="shadow" x="-10%" y="-10%" width="120%" height="120%">
      <feDropShadow dx="0" dy="8" stdDeviation="12" flood-color="#000000" flood-opacity="0.5"/>
    </filter>
  </defs>
  
  <rect width="512" height="512" rx="112" fill="url(#bg)" />
  <rect width="504" height="504" x="4" y="4" rx="108" fill="none" stroke="url(#gold)" stroke-width="3" stroke-opacity="0.4" />
  
  <circle cx="256" cy="256" r="170" fill="#141721" stroke="#2a2d3a" stroke-width="2" />
  
  <g filter="url(#shadow)">
    <path d="M160 250 L256 168 L352 250" fill="none" stroke="url(#gold)" stroke-width="18" stroke-linecap="round" stroke-linejoin="round" />
    <path d="M312 210 L312 176 L332 176 L332 227" fill="none" stroke="url(#gold)" stroke-width="12" stroke-linecap="round" stroke-linejoin="round" opacity="0.8" />
    <path d="M190 248 L190 336 C190 342 194 346 200 346 L312 346 C318 346 322 342 322 336 L322 248" fill="none" stroke="url(#gold)" stroke-width="14" stroke-linecap="round" stroke-linejoin="round" />
    <rect x="234" y="278" width="44" height="68" rx="6" fill="url(#gold)" />
    <circle cx="256" cy="226" r="14" fill="url(#gold)" />
  </g>
</svg>